HIERARCHY
ROOT Hips
{
	OFFSET 0.000000 0.000000 0.000000
	CHANNELS 6 Xposition Yposition Zposition Zrotation Yrotation Xrotation 
	JOINT LHipJoint
	{
		OFFSET 0.000000 0.000000 0.000000
		CHANNELS 3 Zrotation Yrotation Xrotation
		JOINT LeftUpLeg
		{
			OFFSET 1.363060 -1.794630 0.839290
			CHANNELS 3 Zrotation Yrotation Xrotation
			JOINT LeftLeg
			{
				OFFSET 2.448110 -6.726130 0.000000
				CHANNELS 3 Zrotation Yrotation Xrotation
				JOINT LeftFoot
				{
					OFFSET 2.562200 -7.039590 0.000000
					CHANNELS 3 Zrotation Yrotation Xrotation
					JOINT LeftToeBase
					{
						OFFSET 0.157640 -0.433110 2.322550
						CHANNELS 3 Zrotation Yrotation Xrotation
						End Site
						{
							OFFSET 0.000000 0.000000 0.000000
						}
					}
				}
			}
		}
	}
	JOINT RHipJoint
	{
		OFFSET 0.000000 0.000000 0.000000
		CHANNELS 3 Zrotation Yrotation Xrotation
		JOINT RightUpLeg
		{
			OFFSET -1.305520 -1.794630 0.839290
			CHANNELS 3 Zrotation Yrotation Xrotation
			JOINT RightLeg
			{
				OFFSET -2.542530 -6.985550 0.000000
				CHANNELS 3 Zrotation Yrotation Xrotation
				JOINT RightFoot
				{
					OFFSET -2.568260 -7.056230 0.000000
					CHANNELS 3 Zrotation Yrotation Xrotation
					JOINT RightToeBase
					{
						OFFSET -0.164730 -0.452590 2.363150
						CHANNELS 3 Zrotation Yrotation Xrotation
						End Site
						{
							OFFSET 0.000000 0.000000 0.000000
						}
					}
				}
			}
		}
	}
	JOINT LowerBack
	{
		OFFSET 0.000000 0.000000 0.000000
		CHANNELS 3 Zrotation Yrotation Xrotation
		JOINT Spine
		{
			OFFSET 0.028270 2.035590 -0.193380
			CHANNELS 3 Zrotation Yrotation Xrotation
			JOINT Spine1
			{
				OFFSET 0.056720 2.048850 -0.042750
				CHANNELS 3 Zrotation Yrotation Xrotation
				JOINT Neck
				{
					OFFSET 0.000000 0.000000 0.000000
					CHANNELS 3 Zrotation Yrotation Xrotation
					JOINT Neck1
					{
						OFFSET -0.054170 1.746240 0.172020
						CHANNELS 3 Zrotation Yrotation Xrotation
						JOINT Head
						{
							OFFSET 0.104070 1.761360 -0.123970
							CHANNELS 3 Zrotation Yrotation Xrotation
							End Site
							{
								OFFSET 0.000000 0.000000 0.000000
							}
						}
					}
				}
				JOINT LeftShoulder
				{
					OFFSET 0.000000 0.000000 0.000000
					CHANNELS 3 Zrotation Yrotation Xrotation
					JOINT LeftArm
					{
						OFFSET 3.362410 1.200890 -0.311210
						CHANNELS 3 Zrotation Yrotation Xrotation
						JOINT LeftForeArm
						{
							OFFSET 4.983000 -0.000000 -0.000000
							CHANNELS 3 Zrotation Yrotation Xrotation
							JOINT LeftHand
							{
								OFFSET 3.483560 -0.000000 -0.000000
								CHANNELS 3 Zrotation Yrotation Xrotation
								JOINT LeftFingerBase
								{
									OFFSET 0.000000 0.000000 0.000000
									CHANNELS 3 Zrotation Yrotation Xrotation
									JOINT LeftHandIndex1
									{
										OFFSET 0.715260 -0.000000 -0.000000
										CHANNELS 3 Zrotation Yrotation Xrotation
										End Site
										{
											OFFSET 0.000000 0.000000 0.000000
										}
									}
								}
								JOINT LThumb
								{
									OFFSET 0.000000 0.000000 0.000000
									CHANNELS 3 Zrotation Yrotation Xrotation
									End Site
									{
										OFFSET 0.000000 0.000000 0.000000
									}
								}
							}
						}
					}
				}
				JOINT RightShoulder
				{
					OFFSET 0.000000 0.000000 0.000000
					CHANNELS 3 Zrotation Yrotation Xrotation
					JOINT RightArm
					{
						OFFSET -3.136600 1.374050 -0.404650
						CHANNELS 3 Zrotation Yrotation Xrotation
						JOINT RightForeArm
						{
							OFFSET -5.241900 -0.000000 -0.000000
							CHANNELS 3 Zrotation Yrotation Xrotation
							JOINT RightHand
							{
								OFFSET -3.444170 -0.000000 -0.000000
								CHANNELS 3 Zrotation Yrotation Xrotation
								JOINT RightFingerBase
								{
									OFFSET 0.000000 0.000000 0.000000
									CHANNELS 3 Zrotation Yrotation Xrotation
									JOINT RightHandIndex1
									{
										OFFSET -0.622530 -0.000000 -0.000000
										CHANNELS 3 Zrotation Yrotation Xrotation
										End Site
										{
											OFFSET 0.000000 0.000000 0.000000
										}
									}
								}
								JOINT RThumb
								{
									OFFSET 0.000000 0.000000 0.000000
									CHANNELS 3 Zrotation Yrotation Xrotation
									End Site
									{
										OFFSET 0.000000 0.000000 0.000000
									}
								}
							}
						}
					}
				}
			}
		}
	}
}
MOTION
Frames: 9
Frame Time: 0.008333
-0.361852 14.807890 3.332891 -4.454098 8.708995 19.805349 11.301589 0.824877 -3.517005 -7.300396 -8.001499 -56.613173 11.279610 22.986590 67.900954 0.794247 6.115480 -22.253853 0.479400 -4.440300 -12.318700 -12.979283 -1.715133 -3.317200 23.225455 0.764158 -53.307336 -11.702059 -23.215077 70.540472 -1.581821 -4.675706 -26.759307 -0.622800 5.050300 -14.052000 -1.787953 -1.511581 15.967149 0.870007 -2.222610 -4.524764 -5.872295 -0.825241 -7.393280 8.336643 9.849627 -17.236044 4.216800 10.938723 0.699872 -3.938400 5.008400 4.729500 10.818145 -9.338908 1.683864 -26.632483 -54.545534 -13.251170 26.410493 -29.354377 -5.129721 0.262693 4.666046 6.442056 11.205677 23.828400 3.822600 -7.125000 0.000000 0.000000 -16.180900 48.687900 -1.508100 -9.515490 11.629317 5.188350 91.496772 -1.552302 41.235247 -40.506001 46.037531 -11.395540 -1.531998 -3.114410 -3.614219 -22.002499 -6.395808 1.175700 7.125000 0.000000 0.000000 5.113500 -33.333100 1.467400 
-0.368088 14.868629 3.337191 -4.471546 8.653831 19.852975 11.301717 0.832965 -3.500775 -7.381701 -8.046528 -56.168176 10.959758 22.852196 67.003309 0.730916 6.305489 -21.970422 0.466300 -4.380000 -12.148300 -12.985887 -1.725086 -3.302956 23.383123 0.903177 -52.923825 -11.376187 -23.103658 69.652678 -1.516340 -4.765894 -26.463076 -0.603600 4.973100 -13.831900 -1.723144 -1.503251 15.865631 0.870445 -2.197385 -4.535503 -5.859495 -0.819780 -7.353427 8.287584 9.737283 -17.302662 4.277742 10.796371 0.716947 -3.902200 4.946200 4.724400 10.838807 -9.377429 1.762633 -27.560039 -53.648393 -11.798955 27.352318 -30.158971 -5.447677 0.185778 4.668348 5.529475 11.271076 23.939744 3.867400 -7.125000 0.000000 0.000000 -16.158900 48.804500 -1.553400 -9.539676 11.654825 5.158063 91.524274 -1.567070 41.109787 -40.420514 45.982845 -11.330996 -1.497646 -3.117009 -3.517790 -21.689150 -6.505843 1.198100 7.125000 0.000000 0.000000 5.345600 -33.439500 1.520700 
-0.374430 14.931733 3.341706 -4.480944 8.597481 19.898565 11.302034 0.841323 -3.483663 -7.477560 -8.097941 -55.693063 10.625914 22.705942 66.061697 0.665177 6.509500 -21.676103 0.453800 -4.321400 -11.982800 -12.992894 -1.735346 -3.288955 23.536340 1.043592 -52.513394 -11.038664 -22.980748 68.727012 -1.449297 -4.859842 -26.155996 -0.584100 4.893400 -13.604900 -1.656518 -1.496800 15.757061 0.870613 -2.174004 -4.545898 -5.848986 -0.815534 -7.302274 8.236238 9.620074 -17.379806 4.343250 10.648467 0.748282 -3.862500 4.883500 4.728700 10.857990 -9.413622 1.851011 -28.505841 -52.698568 -10.345805 28.349014 -31.004733 -5.796563 0.111544 4.661929 4.622938 11.335324 24.018133 3.906100 -7.125000 0.000000 0.000000 -16.131200 48.895900 -1.587700 -9.565411 11.679183 5.123815 91.557343 -1.574028 40.976920 -40.323851 45.923211 -11.261125 -1.462116 -3.120890 -3.445834 -21.373053 -6.619409 1.220100 7.125000 0.000000 0.000000 5.581000 -33.548300 1.573400 
-0.381203 14.996879 3.346543 -4.483659 8.536589 19.944604 11.302716 0.850012 -3.465745 -7.585161 -8.152131 -55.192856 10.279369 22.547094 65.078284 0.596960 6.728677 -21.369742 0.441800 -4.265000 -11.823300 -13.000686 -1.745723 -3.274417 23.684843 1.193971 -52.082794 -10.691231 -22.847425 67.767710 -1.380145 -4.963310 -25.837059 -0.564900 4.813600 -13.377800 -1.590843 -1.490093 15.640829 0.870309 -2.150597 -4.556913 -5.840507 -0.811348 -7.244476 8.186218 9.497799 -17.465921 4.414094 10.494118 0.795396 -3.819800 4.820200 4.743800 10.875581 -9.446393 1.947800 -29.466692 -51.706378 -8.900591 29.383071 -31.871892 -6.170888 0.038034 4.645444 3.757878 11.363403 24.056115 3.927100 -7.125000 0.000000 0.000000 -16.123800 48.952900 -1.610000 -9.592239 11.702568 5.085752 91.596368 -1.577205 40.840680 -40.219412 45.860731 -11.188909 -1.426681 -3.127216 -3.414916 -21.072454 -6.738627 1.243400 7.125000 0.000000 0.000000 5.806400 -33.661400 1.621500 
-0.388943 15.062886 3.350091 -4.469013 8.499688 20.018052 11.304609 0.858417 -3.445635 -7.696256 -8.236652 -54.712245 9.921384 22.380869 64.057882 0.525398 6.961825 -21.040779 0.430300 -4.209500 -11.666700 -13.009678 -1.756332 -3.260159 23.822112 1.331746 -51.673626 -10.339707 -22.706090 66.789437 -1.309661 -5.072146 -25.508527 -0.545600 4.732200 -13.146300 -1.526034 -1.494173 15.496644 0.871123 -2.141213 -4.570078 -5.832682 -0.814334 -7.173896 8.141262 9.373104 -17.568282 4.488505 10.336185 0.855446 -3.776000 4.757000 4.770300 10.891929 -9.474498 2.054698 -30.425946 -50.663829 -7.455448 30.454998 -32.761419 -6.571522 -0.035568 4.617022 2.944584 11.335970 24.043712 3.922900 -7.125000 0.000000 0.000000 -16.150100 48.965100 -1.617800 -9.620145 11.723556 5.042829 91.639448 -1.568402 40.708304 -40.101195 45.791984 -11.112453 -1.394430 -3.134764 -3.421849 -20.806108 -6.848276 1.263900 7.125000 0.000000 0.000000 6.007700 -33.764000 1.663200 
-0.397436 15.129752 3.352564 -4.442939 8.475027 20.110282 11.307616 0.866657 -3.423817 -7.808260 -8.340398 -54.240055 9.553099 22.204842 63.001279 0.451424 7.205404 -20.690322 0.417700 -4.148300 -11.494100 -13.020047 -1.766958 -3.245208 23.952129 1.471079 -51.275623 -9.982589 -22.556434 65.788417 -1.236524 -5.196028 -25.168564 -0.527700 4.655300 -12.927900 -1.462492 -1.503785 15.336176 0.872508 -2.139465 -4.585777 -5.825137 -0.821104 -7.100842 8.102549 9.246181 -17.676427 4.565383 10.174634 0.925671 -3.732000 4.693700 4.804600 10.906698 -9.499855 2.171341 -31.401605 -49.564747 -5.998298 31.569442 -33.674514 -7.002813 -0.107637 4.576785 2.217499 11.245685 23.985344 3.892200 -7.125000 0.000000 0.000000 -16.217000 48.936400 -1.613100 -9.648353 11.743617 4.995970 91.684809 -1.557769 40.582997 -39.973148 45.718420 -11.034656 -1.367064 -3.143762 -3.463820 -20.588747 -6.947550 1.282700 7.125000 0.000000 0.000000 6.173900 -33.855700 1.695900 
-0.406466 15.197908 3.354499 -4.406034 8.456435 20.212299 11.311680 0.874938 -3.400841 -7.926465 -8.457766 -53.760022 9.174802 22.016900 61.907620 0.376629 7.453866 -20.324188 0.403300 -4.076900 -11.293200 -13.031304 -1.777425 -3.230277 24.073389 1.612225 -50.871910 -9.618610 -22.396171 64.759352 -1.162359 -5.325261 -24.818619 -0.509700 4.576500 -12.704500 -1.400710 -1.517383 15.162626 0.873698 -2.143128 -4.602063 -5.820869 -0.830927 -7.017307 8.070204 9.118008 -17.793801 4.645212 10.010744 1.004524 -3.687300 4.630700 4.845400 10.918519 -9.523224 2.301552 -32.386313 -48.367075 -4.486409 32.766642 -34.650650 -7.488192 -0.176184 4.527985 1.519836 11.131406 23.910139 3.851500 -7.125000 0.000000 0.000000 -16.304100 48.895700 -1.605500 -9.677128 11.762618 4.944843 91.729615 -1.543061 40.466608 -39.836403 45.641617 -10.956044 -1.344809 -3.153168 -3.526764 -20.416439 -7.032278 1.298400 7.125000 0.000000 0.000000 6.307200 -33.932700 1.721000 
-0.415388 15.268322 3.357401 -4.371470 8.421691 20.288839 11.315612 0.883793 -3.378180 -8.056110 -8.563728 -53.219137 8.787508 21.810690 60.775355 0.302869 7.702480 -19.954283 0.386600 -3.992800 -11.056400 -13.042742 -1.788140 -3.215802 24.197292 1.763279 -50.409891 -9.243437 -22.219471 63.688840 -1.088233 -5.454135 -24.458454 -0.490400 4.490300 -12.460200 -1.334799 -1.526777 15.003273 0.873682 -2.140784 -4.616183 -5.823024 -0.838015 -6.925322 8.042128 8.989059 -17.918154 4.728012 9.845507 1.091319 -3.640800 4.568400 4.891700 10.926285 -9.545635 2.445865 -33.387675 -47.058555 -2.920779 34.059664 -35.698166 -8.039579 -0.235935 4.470393 0.854262 11.020297 23.808864 3.806700 -7.125000 0.000000 0.000000 -16.386400 48.837800 -1.590100 -9.706043 11.781330 4.890626 91.771807 -1.532087 40.358696 -39.694933 45.563781 -10.878041 -1.327312 -3.162651 -3.598406 -20.283779 -7.104152 1.311900 7.125000 0.000000 0.000000 6.411300 -33.997000 1.739700 
-0.423881 15.340779 3.361164 -4.339933 8.369291 20.344130 11.319606 0.893072 -3.356397 -8.195393 -8.658143 -52.620964 8.392073 21.585622 59.604916 0.230100 7.951357 -19.580298 0.368300 -3.898000 -10.789900 -13.055027 -1.799219 -3.201579 24.324127 1.930990 -49.891803 -8.855740 -22.025659 62.572195 -1.013259 -5.589756 -24.088767 -0.470600 4.400000 -12.204800 -1.263846 -1.530845 14.849761 0.872304 -2.130530 -4.627181 -5.833416 -0.841300 -6.821227 8.022914 8.863186 -18.045815 4.809141 9.683525 1.182568 -3.596300 4.508100 4.940900 10.930668 -9.564765 2.598639 -34.415228 -45.692394 -1.383931 35.404327 -36.775530 -8.642713 -0.275677 4.403367 0.311565 10.936540 23.644942 3.758000 -7.125000 0.000000 0.000000 -16.431400 48.731300 -1.550700 -9.734133 11.797530 4.835488 91.811128 -1.524248 40.254940 -39.554431 45.488694 -10.802744 -1.312670 -3.171819 -3.665948 -20.173505 -7.169191 1.324200 7.125000 0.000000 0.000000 6.498700 -34.054700 1.754500 
